<svg xmlns="http://www.w3.org/2000/svg" xmlns:xlink="http://www.w3.org/1999/xlink" preserveAspectRatio="xMidYMid" width="32" height="29.513" viewBox="0 0 33.003 30.438">
  <defs>
    <style>
      .cls-2 {
        fill: #dcdcd9;
        fill-rule: evenodd;
      }
    </style>
  </defs>
  <path d="M17.102,0.662 L20.248,9.663 C20.388,10.063 20.768,10.332 21.195,10.332 L31.283,10.325 C32.234,10.324 32.650,11.519 31.902,12.104 L24.139,18.175 C23.813,18.431 23.679,18.861 23.803,19.256 L26.898,29.074 C27.182,29.976 26.163,30.728 25.378,30.195 L16.721,24.321 C16.380,24.091 15.932,24.091 15.592,24.321 L6.852,30.251 C6.077,30.777 5.065,30.048 5.326,29.151 L8.259,19.067 C8.373,18.678 8.238,18.259 7.918,18.008 L0.399,12.103 C-0.347,11.517 0.070,10.324 1.020,10.325 L11.118,10.332 C11.544,10.332 11.924,10.063 12.064,9.663 L15.210,0.662 C15.522,-0.230 16.790,-0.230 17.102,0.662 Z" transform="translate(0.36)" class="cls-2"/>
</svg>
